<?xml version="1.0" encoding="UTF-8"?><svg id="Layer_1" xmlns="http://www.w3.org/2000/svg" viewBox="0 0 72.78 95.86"><defs><style>.cls-1{fill:#1eb5b6;}.cls-2{fill:#1f2f5c;}</style></defs><path class="cls-2" d="M10.92,56.72c.4.26,1.57.29,2.41.83,7.76,5.02,15.41,10.23,23.31,15.04l36.14-23.15v22.91l-36.14,23.51c-10.33-6.02-20.16-12.86-30.08-19.51l4.37-19.63h0Z"/><path class="cls-2" d="M36.39,0c12.45,7.31,24.6,15.26,36.38,23.63v22.91l-36.38-23.27V0Z"/><polygon class="cls-1" points="36.39 23.27 .01 45.81 .01 23.63 36.39 0 36.39 23.27"/><path class="cls-1" d="M53.85,47.28c.35.42.1,1.01-.45,1.5-.98.88-13.96,9.41-14.86,9.74-5.24,1.92-14.1-8.74-19.61-9.81l.45-1.49,16.78-10.75s17.69,10.81,17.69,10.81Z"/><path class="cls-1" d="M10.92,56.72l-4.37,19.63c-2-1.34-4.77-2.1-6.55-4v-22.91c3.24.92,6.19,3.37,9,5.21,1,.65,1.62,1.86,1.92,2.06h0Z"/></svg>