<?xml version="1.0" encoding="UTF-8"?><svg id="Layer_1" xmlns="http://www.w3.org/2000/svg" viewBox="0 0 388.57 52.34"><defs><style>.cls-1{fill:#fdfdfe;}.cls-2{fill:#1f2f5c;}</style></defs><path class="cls-2" d="M341.27,2.74l6.47.09,17.54,39.18,16.86-39.15,6.43-.12v48h-5.09V12.19l-16.56,36.89c-.47,1.25-1.36,1.79-2.73,1.71l-17.82-37.88v37.81h-5.09V2.74h-.01Z"/><path class="cls-2" d="M213.2,36.19h-26.2c.27,6.6,6.96,8.13,12.69,7.22,2.29-.36,4.71-2.87,5.88-2.87.44,0,4.32,2.87,4.7,3.3,2.95,3.32-6.22,7.27-8.87,7.84-29.64,6.3-33.01-34.47-8.98-36.6,14.17-1.26,20.84,7.76,20.77,21.12h.01ZM187.01,29.64h13.46c.21,0,2.05,1.53,2.54-.4.85-3.36-5.29-7.05-8.34-6.93-3.42.14-7.99,3.65-7.66,7.32h0Z"/><path class="cls-2" d="M113.52,36.19h-25.47c.57,6.8,7.5,8.43,13.31,7.12,3.83-.86,4.23-7.03,9.29.48,2.89,4.29-7.94,8.07-11.33,8.38-28.99,2.66-29.55-39.67-.69-37.1,10.78.96,15.83,11.25,14.89,21.12h0ZM87.32,30.37h16.01c.54-10.47-14.81-9.64-16.01,0Z"/><path class="cls-2" d="M320.53,2.74c12.06,1.88,15.35,18.27,5.41,25.04-1.92,1.31-4.12,1.47-5.76,3l12.36,19.96c-1.97-.18-4.65.66-6.19-.71-1.6-2.27-11.23-18.92-12.36-18.92h-13.46v19.63h-5.09V3.83c0-.08,1.01-1.09,1.09-1.09,6.78,0,17.86-.96,24.01,0h-.01ZM300.52,26.73h16.37c.57,0,5.04-1.68,5.83-2.17,5.42-3.46,5.7-11.97.32-15.61-.54-.37-3.68-1.85-3.97-1.85h-18.55v19.63Z"/><path class="cls-2" d="M65.49,7.1v8.73h8.74c.83,8.9-.51,8.41-8.74,8,.78,4.81-1.11,13.39.15,17.67,1.14,3.88,7.54.94,7.85,1.23.28.26,1.57,7.17,1.52,7.55-.32,2.11-9.92,2.15-11.9,1.74-2.81-.57-7.8-4.52-7.8-7.47v-20.73c-1.08-.18-5.57.26-5.82,0-.29-.29.23-6.32,0-7.58.16-1.07,5.42,0,5.84-.42.31-.31-.23-7.35,0-8.73h10.19-.03Z"/><path class="cls-2" d="M265.42,2.2c6.23-.9,13.17.12,18.32,3.86,2.42,1.76,5.21,4,1.88,6.19-2.16,1.42-4.29-1.97-6.41-3.11-10.04-5.43-23.82-1.11-27.23,10.17-5.21,17.26,8.96,33.31,26.26,25.52,3.53-1.59,7.23-7.47,9.59-2.81,1.22,2.4-7.39,7.4-9.37,8.12-34.6,12.65-45.65-43.21-13.04-47.94Z"/><rect class="cls-2" x="120.06" y=".55" width="10.19" height="50.9"/><rect class="cls-2" x="139.68" y=".55" width="10.22" height="50.98"/><path class="cls-2" d="M229.21,15.83c.48.47-.94,4.8.72,5.08,1.8-5.2,7.38-6.4,12.38-5.82.38.38-.36,9.75-.76,10.15-.44.43-8.89-1.21-11.06,3.86-1.88,4.37.73,19.39-.87,21.68-1.03,1.48-8.45.32-10.6.68V15.83c1.54.26,9.83-.36,10.19,0Z"/><path class="cls-2" d="M169.54,15.83v35.63c-1.57-.22-10.19.74-10.19-1.09V15.83s10.19,0,10.19,0Z"/><circle class="cls-2" cx="164.59" cy="5.76" r="5.76"/><path class="cls-1" d="M187.01,29.64c-.33-3.68,4.23-7.18,7.66-7.32,3.05-.13,9.19,3.57,8.34,6.93-.49,1.93-2.33.4-2.54.4h-13.46Z"/><path class="cls-1" d="M87.32,30.37c1.2-9.64,16.55-10.47,16.01,0h-16.01Z"/><path class="cls-2" d="M0,51.46L19.57,3.19c.71-.88,8.44-1.42,9.93-1.23l20.71,49.5h-10.91c-.52,0-2.95-8.88-3.56-9.75-.75-1.08-18.19-.16-21.08-.33-.59,1.45-3.15,10.08-4.1,10.08H0ZM32.02,32.55l-6.91-18.19-6.91,18.19h13.83,0Z"/><polygon class="cls-1" points="32.02 32.55 18.19 32.55 25.11 14.36 32.02 32.55"/></svg>